Simulation
nRows=35
nColumns=15
endheader
time  TH_x TH_y TH_z SC_y  SC_z  SC_x  AC_y  AC_z  AC_x  GH_y  GH_z  GH_yy  EL_x  PS_y
2.6910411985018725  0.000000  0.000000  0.000000  -23.73626200446193  4.316405523876719  -2.932565278402902  56.53844932118516  8.70299228979223  4.966979382045429  -4.433292865840686  3.3675651031290914  33.97552696992284  15.890374610214899  120.000000
2.7312059925093632  0.000000  0.000000  0.000000  -23.53382829312192  4.271851472516432  -2.8910894970277847  57.100139958709235  9.037670082732188  5.31949180124883  3.073270541942632  1.7400115158106049  28.730292553123405  16.637897129277537  120.000000
2.771370786516854  0.000000  0.000000  0.000000  -23.491793512292695  4.290699547752901  -2.7796807368535403  57.584089340830715  9.348907015519616  5.628041117870726  60.903197189162114  0.4916678654425708  -27.04680574425296  17.30013356006686  120.000000
2.8115355805243447  0.000000  0.000000  0.000000  -23.571539620306524  4.359959939108004  -2.625819842379393  57.98992389135778  9.623989595534821  5.886186603800822  147.8092391183698  1.364316537303026  -112.10117470447183  17.852045756196116  120.000000
2.851700374531835  0.000000  0.000000  0.000000  -23.736307995865275  4.466280887875163  -2.4465857797240895  58.32060697665626  9.85791662767878  6.093518734364539  158.4737890367975  2.634686357067335  -121.10183058031399  18.27860270164842  120.000000
2.8918651685393257  0.000000  0.000000  0.000000  -23.954628256888604  4.597467045098236  -2.2502285781371163  58.58258691339891  10.053031692165833  6.2536792556324174  162.62796436095056  3.823568525986795  -123.76676701169782  18.575501488884615  120.000000
2.9320299625468165  0.000000  0.000000  0.000000  -24.2005620053818  4.74294825553653  -2.039709233370361  58.78366732439171  10.215046900080875  6.372958049497716  165.2115294973675  4.907902353112946  -125.0244150838794  18.74865621035971  120.000000
2.972194756554307  0.000000  0.000000  0.000000  -24.45385895098489  4.8935556812149725  -1.8163702950869154  58.932218856936736  10.349623303873116  6.4581615471129314  167.16309673744914  5.882770999155609  -125.80374806441975  18.812057939118567  120.000000
3.012359550561798  0.000000  0.000000  0.000000  -24.69934837119418  5.041836692754529  -1.5818678961071369  59.035975260336116  10.460813184968533  6.515182454378108  168.78408985839835  6.747784327679655  -126.39702729530674  18.785742820612068  120.000000
3.0525243445692882  0.000000  0.000000  0.000000  -24.927586808532176  5.183390103878709  -1.3392942794263756  59.10217863452858  10.55061147610709  6.547694871854685  170.20060087932333  7.50518887813332  -126.92190960026241  18.692887004428485  120.000000
3.092689138576779  0.000000  0.000000  0.000000  -25.13335456505615  5.316330246820084  -1.093099663298549  59.137089512865295  10.619505298289914  6.557335163560077  171.47284876968553  8.159156789166277  -127.43008671825478  18.55712972787299  120.000000
3.1328539325842697  0.000000  0.000000  0.000000  -25.3142115549408  5.439325865319762  -0.848253385577621  59.1456964170437  10.667052176689587  6.545266322484211  172.62946643525473  8.715071480548259  -127.94145075077182  18.399754797923816  120.000000
3.1730187265917604  0.000000  0.000000  0.000000  -25.46975352459696  5.551180315672001  -0.6095366708563129  59.13196373993004  10.692140293737372  6.513189927678288  173.67946773957812  9.179112873487911  -128.45618873361866  18.23777997533458  120.000000
3.2131835205992507  0.000000  0.000000  0.000000  -25.600263427777538  5.6505734907386325  -0.3814467413278983  59.099219986741204  10.69349027424459  6.4634611551519  174.62130720825266  9.557596091346598  -128.9639681460898  18.0826667690158  120.000000
3.2533483146067415  0.000000  0.000000  0.000000  -25.70628290959988  5.736380261700108  -0.16787571486542935  59.050468226187306  10.670114197848662  6.398809784403897  175.44857498788426  9.856256501508396  -129.44993415115968  17.940157728047176  120.000000
3.293513108614232  0.000000  0.000000  0.000000  -25.788315230943248  5.808275254704262  0.027905855291227334  58.988724742215375  10.621634989197855  6.321643775063772  176.15275520216102  10.079731954449203  -129.8977023618446  17.811383255399274  120.000000
3.333677902621723  0.000000  0.000000  0.000000  -25.846700727995486  5.866442668243261  0.20323596639974556  58.9167191580467  10.548119435986127  6.233959239132382  176.7284238053589  10.231607787186997  -130.29440205505463  17.69452427495937  120.000000
3.3738426966292137  0.000000  0.000000  0.000000  -25.882007599347048  5.911275734121268  0.3559415305377888  58.836639481341486  10.449845289699187  6.137548846076355  177.1735228380935  10.31458192262406  -130.63108264289568  17.58662591047429  120.000000
3.414007490636704  0.000000  0.000000  0.000000  -25.895016204725508  5.943245698819464  0.4843825463285534  58.7500705299737  10.327340304051255  6.034110908910419  177.4891890105209  10.330513860732644  -130.9026105150835  17.485012459564956  120.000000
3.4541722846441947  0.000000  0.000000  0.000000  -25.886778639032983  5.962884904807345  0.5874740965984743  58.657976615301  10.181465103421305  5.925274645581894  177.67920271133565  10.280381655661648  -131.10721488262638  17.38802965796924  120.000000
3.4943370786516854  0.000000  0.000000  0.000000  -25.85860531145512  5.970763080711806  0.6646961978348735  58.5608217350762  10.0134484375012  5.812596864587676  177.74922099127798  10.164333524687052  -131.2458125578794  17.29503310470141  120.000000
3.534501872659176  0.000000  0.000000  0.000000  -25.81202152844349  5.967517559490268  0.7160202965433334  58.4587476507552  9.824868797927493  5.697551411370658  177.70576395942837  9.981733376198068  -131.3210446000963  17.205815536996656  120.000000
3.574666666666667  0.000000  0.000000  0.000000  -25.74862745990851  5.953907159007493  0.7418591412233996  58.35194022590391  9.617661618933015  5.581381903760636  177.55487746963703  9.73123320680706  -131.33599983791598  17.11973347138746  120.000000
3.614831460674157  0.000000  0.000000  0.000000  -25.670014990167697  5.930838037676008  0.7429052012530746  58.240667332259164  9.394143762502987  5.4652042448849585  177.30162899596672  9.410867498479867  -131.29373570843148  17.034728306552847  120.000000
3.654996254681648  0.000000  0.000000  0.000000  -25.577630492386152  5.899213031493229  0.7201874876087544  58.12520229318052  9.157007265302855  5.350112674535354  176.95058358159096  9.018139830037846  -131.19773402285225  16.9466117576024  120.000000
3.6951610486891386  0.000000  0.000000  0.000000  -25.47233759929117  5.859922739560295  0.6751717239152109  58.00591931469619  8.909425011101558  5.237223849210471  176.5041979104116  8.550141646898748  -131.05028487070413  16.848915050505962  120.000000
3.7353258426966294  0.000000  0.000000  0.000000  -25.35416311986515  5.813854454612459  0.6095415589828224  57.883393816768695  8.65514632336391  5.1280112529685775  175.95998093185136  8.003793742753313  -130.84972246435075  16.733335304552796  120.000000
3.7754906367041197  0.000000  0.000000  0.000000  -25.22161199031749  5.76126924115716  0.5250752753697702  57.75852636536031  8.39797924653762  5.024195716484722  175.3100361192988  7.376449497596842  -130.58984934003198  16.590759821040262  120.000000
3.8156554307116104  0.000000  0.000000  0.000000  -25.07165620450839  5.702352719976517  0.4230963292877964  57.63290569355872  8.141513791304993  4.927601343026997  174.53517849579197  6.666503939255706  -130.25423776946857  16.41216327670532  120.000000
3.855820224719101  0.000000  0.000000  0.000000  -24.899897696500496  5.638085044996378  0.3045431784928352  57.50814137471045  7.889886484537668  4.839704254936562  173.59999806104716  5.87294795342114  -129.8111184326233  16.189547382821054  120.000000
3.895985018726592  0.000000  0.000000  0.000000  -24.700002297711233  5.57002721903911  0.17071409608466234  57.384928464923185  7.648940172475475  4.761326200366111  172.44200625746168  4.994885603037217  -129.20205733453133  15.916372697508265  120.000000
3.9361498127340826  0.000000  0.000000  0.000000  -24.46414859695747  5.500735927640231  0.02413278899512438  57.26340587150174  7.426704190005242  4.69330037383002  170.90685814670218  4.0315077529160765  -128.27741729594618  15.588728219619833  120.000000
3.976314606741573  0.000000  0.000000  0.000000  -24.185144910041505  5.434218124120077  -0.13028116588194047  57.14282682259833  7.233972769190838  4.636750772453582  168.50480189751536  2.9822423035435977  -126.55520561939716  15.20705387747691  120.000000
4.016479400749064  0.000000  0.000000  0.000000  -23.861315271182516  5.375274571800686  -0.28373961925686  57.01928377860568  7.084968594604595  4.5929957825594725  163.26937560076144  1.8495981903591727  -122.08259713852605  14.777187277583913  120.000000
4.056644194756554  0.000000  0.000000  0.000000  -23.49786051521818  5.3300737354628716  -0.4232529812118615  56.88550426360739  6.997521142702592  4.563851887504636  138.59360226737078  0.6914176189125493  -98.27009049000478  14.310659853485332  120.000000
